<?xml version="1.0" encoding="UTF-8"?>
<svg xmlns="http://www.w3.org/2000/svg" xmlns:xlink="http://www.w3.org/1999/xlink" viewBox="0 0 100 100" width="100px" height="100px">
<g id="surface37437456">
<path style=" stroke:none;fill-rule:nonzero;fill:rgb(100%,100%,100%);fill-opacity:1;" d="M 54 16 C 59.464844 16 61.261719 17.074219 63.535156 18.433594 C 66.4375 20.171875 69.726562 22.136719 78 22.148438 L 78 32 C 71.4375 32 69.304688 30.660156 67.042969 29.242188 C 64.617188 27.722656 61.867188 26 56 26 C 55.347656 26 54.660156 26.078125 54 26.292969 L 54 16 M 50 67.21875 L 50 72 C 50 79.601562 48.34375 84 39.871094 84 C 28 84 28 79.375 28 76 C 28 73.324219 28 70 40 70 C 44.726562 70 47.894531 68.867188 50 67.21875 M 54 12 C 50.800781 12 50 14 50 16 L 50 58 C 50 62.429688 47.933594 66 40 66 C 28.679688 66 24 68.929688 24 76 C 24 80.765625 24.976562 88 39.871094 88 C 53.710938 88 54 77.363281 54 72 C 54 69.945312 54 64.195312 54 58 L 54 34 C 54.011719 31.289062 54.398438 30 56 30 C 66.277344 30 63.742188 36 78 36 C 78 36 82 36 82 32.601562 C 82 27.492188 82 23.875 82 21.9375 C 82 18.871094 80.625 18.148438 78.074219 18.148438 C 63.851562 18.152344 67.347656 12 54 12 Z M 54 12 "/>
</g>
</svg>
